<svg width="47" height="87" viewBox="0 0 47 87" fill="none" xmlns="http://www.w3.org/2000/svg">
<path d="M9.4 86.2L5 78.6C10.6 75.6667 16.0667 71 21.4 64.6C27 57.9333 29.8 50.7333 29.8 43C29.8 40.0666 29.1333 37.1333 27.8 34.2C26.2 35.5333 24.4667 36.4667 22.6 37C21 37.2667 19.4 37.4 17.8 37.4C13.2667 37.4 9.13333 35.8 5.4 32.6C1.93333 29.4 0.2 25.1333 0.2 19.8C0.2 14.4667 2.2 9.93332 6.2 6.19999C10.2 2.46666 15.2667 0.59999 21.4 0.59999C29.6667 0.59999 35.9333 3.79999 40.2 10.2C44.4667 16.6 46.6 24.0666 46.6 32.6C46.6 43 43.4 53.1333 37 63C30.6 72.6 21.4 80.3333 9.4 86.2Z" fill="#F88379"/>
</svg>
