<svg width="615" height="373" viewBox="0 0 615 373" fill="none" xmlns="http://www.w3.org/2000/svg">
<path d="M568.4 330.2L564 322.6C569.6 319.667 575.067 315 580.4 308.6C586 301.933 588.8 294.733 588.8 287C588.8 284.067 588.133 281.133 586.8 278.2C585.2 279.533 583.467 280.467 581.6 281C580 281.267 578.4 281.4 576.8 281.4C572.267 281.4 568.133 279.8 564.4 276.6C560.933 273.4 559.2 269.133 559.2 263.8C559.2 258.467 561.2 253.933 565.2 250.2C569.2 246.467 574.267 244.6 580.4 244.6C588.667 244.6 594.933 247.8 599.2 254.2C603.467 260.6 605.6 268.067 605.6 276.6C605.6 287 602.4 297.133 596 307C589.6 316.6 580.4 324.333 568.4 330.2Z" fill="#F88379"/>
<path d="M46.4 0.599992L50.8 8.19999C45.2 11.1333 39.6 15.9333 34 22.6C28.6667 29 26 36.0667 26 43.8C26 46.7333 26.6667 49.6667 28 52.6C29.6 51.2667 31.2 50.4667 32.8 50.2C34.6667 49.6667 36.4 49.4 38 49.4C42.5333 49.4 46.5333 51 50 54.2C53.7333 57.4 55.6 61.6667 55.6 67C55.6 72.3333 53.6 76.8667 49.6 80.6C45.6 84.3333 40.5333 86.2 34.4 86.2C26.1333 86.2 19.8667 83 15.6 76.6C11.3333 70.2 9.2 62.7333 9.2 54.2C9.2 43.8 12.4 33.8 18.8 24.2C25.2 14.3333 34.4 6.46666 46.4 0.599992Z" fill="#F88379"/>
</svg>
