<svg width="47" height="87" viewBox="0 0 47 87" fill="none" xmlns="http://www.w3.org/2000/svg">
<path d="M37.4 0.599992L41.8 8.19999C36.2 11.1333 30.6 15.9333 25 22.6C19.6667 29 17 36.0667 17 43.8C17 46.7333 17.6667 49.6667 19 52.6C20.6 51.2667 22.2 50.4667 23.8 50.2C25.6667 49.6667 27.4 49.4 29 49.4C33.5333 49.4 37.5333 51 41 54.2C44.7333 57.4 46.6 61.6667 46.6 67C46.6 72.3333 44.6 76.8667 40.6 80.6C36.6 84.3333 31.5333 86.2 25.4 86.2C17.1333 86.2 10.8667 83 6.6 76.6C2.33333 70.2 0.200001 62.7333 0.200001 54.2C0.200001 43.8 3.4 33.8 9.8 24.2C16.2 14.3333 25.4 6.46666 37.4 0.599992Z" fill="#F88379"/>
</svg>
