<svg width="50" height="38" viewBox="0 0 50 38" fill="none" xmlns="http://www.w3.org/2000/svg">
<path d="M4.55556 4.38971L20.164 15.4117L20.1692 15.4157C21.9023 16.6042 22.7694 17.1988 23.719 17.4285C24.5585 17.6315 25.4408 17.6315 26.2803 17.4285C27.2308 17.1986 28.1004 16.6022 29.8366 15.4117C29.8366 15.4117 39.848 8.22743 45.4444 4.38971M2 27.8093V9.64753C2 6.97081 2 5.63145 2.55708 4.60908C3.0471 3.70977 3.82843 2.97914 4.79015 2.52093C5.88347 2 7.31579 2 10.1783 2H39.8227C42.6852 2 44.1145 2 45.2078 2.52093C46.1695 2.97914 46.9535 3.70977 47.4435 4.60908C48 5.63045 48 6.96819 48 9.63968V27.8174C48 30.4889 48 31.8247 47.4435 32.8461C46.9535 33.7454 46.1695 34.4773 45.2078 34.9355C44.1155 35.4559 42.687 35.4559 39.8301 35.4559H10.1699C7.31298 35.4559 5.8824 35.4559 4.79015 34.9355C3.82843 34.4773 3.0471 33.7454 2.55708 32.8461C2 31.8237 2 30.486 2 27.8093Z" stroke="#F88379" stroke-width="4" stroke-linecap="round" stroke-linejoin="round"/>
</svg>
