<svg width="32" height="37" viewBox="0 0 32 37" fill="none" xmlns="http://www.w3.org/2000/svg">
<path d="M2 14.6887C2 23.5815 10.489 30.9354 14.2464 33.7549C14.7842 34.1584 15.0563 34.3626 15.4575 34.4661C15.7699 34.5467 16.2297 34.5467 16.5421 34.4661C16.944 34.3624 17.2142 34.1602 17.754 33.7552C21.5114 30.9357 30 23.5823 30 14.6895C30 11.3242 28.5251 8.09623 25.8996 5.71656C23.274 3.33689 19.7133 2 16.0002 2C12.2872 2 8.72605 3.33709 6.10053 5.71676C3.475 8.09643 2 11.3233 2 14.6887Z" stroke="#F88379" stroke-width="4" stroke-linecap="round" stroke-linejoin="round"/>
<path d="M12.0001 12.9972C12.0001 15.0218 13.7909 16.663 16.0001 16.663C18.2092 16.663 20.0001 15.0218 20.0001 12.9972C20.0001 10.9727 18.2092 9.33149 16.0001 9.33149C13.7909 9.33149 12.0001 10.9727 12.0001 12.9972Z" stroke="#F88379" stroke-width="4" stroke-linecap="round" stroke-linejoin="round"/>
</svg>
