<svg width="38" height="38" viewBox="0 0 38 38" fill="none" xmlns="http://www.w3.org/2000/svg">
<path d="M14.2821 4.37475C13.7084 2.94048 12.3193 2 10.7746 2H5.57886C3.60231 2 2 3.60196 2 5.57856C2 22.3797 15.62 36 32.4207 36C34.3972 36 35.9991 34.3975 35.9991 32.4209L36 27.2242C36 25.6794 35.0598 24.2905 33.6256 23.7168L28.6457 21.7256C27.3574 21.2102 25.8906 21.4422 24.8246 22.3305L23.5394 23.4024C22.0385 24.6532 19.83 24.5538 18.4484 23.1722L14.8294 19.5498C13.4479 18.1682 13.3458 15.9614 14.5966 14.4604L15.6683 13.1752C16.5566 12.1093 16.7905 10.642 16.2752 9.35362L14.2821 4.37475Z" stroke="#F88379" stroke-width="4" stroke-linecap="round" stroke-linejoin="round"/>
</svg>
